<svg xmlns="http://www.w3.org/2000/svg" preserveAspectRatio="xMidYMid" width="1082" height="435" viewBox="0 0 1082 435"><defs><style>.cls-1{fill:#162629}.cls-2{fill:#26383d}.cls-2,.cls-3,.cls-4,.cls-5{fill-rule:evenodd}.cls-3{fill:#222f33}.cls-4{fill:#e4a13c}.cls-5{fill:#152624}</style></defs><path class="cls-1" d="M349 26h705v28H349z"/><path d="M1054 435V31H339v404H0V3h1082v432h-28z" class="cls-2"/><path d="M12 171V48h314v123H12zM240 70H98v13h142V70zm82 347H16V186h306v231zm-43-186h-13v142h13V231z" class="cls-3"/><path d="M12 171V48h314v123H12zM240 70H98v13h142V70zm82 347H16V186h306v231zm-43-186h-13v142h13V231z" class="cls-4"/><path d="M26 38h286l14 10H12l14-10z" class="cls-5"/></svg>