<svg xmlns="http://www.w3.org/2000/svg" preserveAspectRatio="xMidYMid" width="1300" height="683" viewBox="0 0 1300 683"><defs><style>.cls-1{fill:#3d4b5a}.cls-1,.cls-2,.cls-3,.cls-4{fill-rule:evenodd}.cls-2{fill:#d5d9da}.cls-3{fill:#c8c8c8}.cls-4{fill:#ebf2f3}</style></defs><path d="M1287.447 460.701c-19.717 100.55-151.003 159.451-293.236 131.56-142.232-27.891-241.55-132.013-221.833-232.563 19.718-100.55 151.004-159.451 293.236-131.56 142.233 27.891 241.551 132.013 221.833 232.563zm-227.189-205.253c-120.897-23.708-232.491 26.359-249.25 111.826-16.76 85.467 67.66 173.971 188.558 197.678 120.897 23.708 232.49-26.358 249.25-111.826 16.76-85.467-67.66-173.971-188.558-197.678z" class="cls-1"/><path d="M1297.447 480.701c-19.717 100.55-151.003 159.451-293.236 131.56-142.232-27.891-241.55-132.013-221.833-232.563 19.718-100.55 151.004-159.451 293.236-131.56 142.233 27.891 241.551 132.013 221.833 232.563zm-227.189-205.253c-120.897-23.708-232.491 26.359-249.25 111.826-16.76 85.467 67.66 173.971 188.558 197.678 120.897 23.708 232.49-26.358 249.25-111.826 16.76-85.467-67.66-173.971-188.558-197.678z" class="cls-2"/><path d="M551.737 473.731c-52.145-41.617-81.922-100.867-87.63-162.436-15.281-5.409-72.042-25.578-85.249-31.346-15.3-6.682-16.299-11.952-18.608-19.969-2.31-8.016-.015-12.806-.015-12.806l-102.138-37.207c4.771-13.808.658-29.709-11.411-39.342-15.324-12.23-37.661-9.722-49.891 5.602a35.458 35.458 0 0 0-5.408 9.439l-29.242-10.652c3.484-8.422 1.183-18.46-6.298-24.43-9.065-7.235-22.278-5.751-29.513 3.314a20.924 20.924 0 0 0-3.59 6.763l-1.4-.51s-26.074-9.046-35.623-13.077c-9.549-4.032-19.715-12.455-20.945-15.437 0 0-27.745-70.743-28.979-74.305-1.234-3.562-2.211-5.63.301-9.996 2.511-4.365 6.395-6.41 6.395-6.41S97.349 8.822 108.667 2.899c11.318-5.924 21.615.604 26.552 1.999l275.295 100.724s5.573-8.518 10.762-11.882c5.19-3.364 15.255-4.681 22.487-2.525l88.084 32c83.653-84.114 218.986-93.507 313.842-17.803 101.709 81.173 118.356 229.427 37.184 331.136-81.173 101.708-229.428 118.356-331.136 37.183zm288.92-200.098c-29.353-23.427-72.14-18.622-95.566 10.731-23.427 29.353-18.622 72.139 10.731 95.566 29.353 23.426 72.139 18.622 95.566-10.731 23.426-29.354 18.622-72.14-10.731-95.566z" class="cls-1"/><path d="M554.893 501.839c-52.145-41.617-81.921-100.867-87.63-162.436-15.281-5.41-72.042-25.579-85.249-31.347-15.299-6.681-16.298-11.952-18.608-19.968-2.309-8.017-.015-12.806-.015-12.806l-102.138-37.207c4.771-13.808.659-29.71-11.411-39.343-15.324-12.23-37.661-9.721-49.891 5.603a35.48 35.48 0 0 0-5.408 9.439l-29.242-10.652c3.485-8.423 1.183-18.46-6.298-24.43-9.065-7.235-22.278-5.751-29.513 3.314a20.914 20.914 0 0 0-3.59 6.763l-1.4-.51s-26.074-9.046-35.623-13.078c-9.549-4.031-19.715-12.455-20.945-15.436 0 0-27.745-70.743-28.979-74.305-1.234-3.563-2.211-5.631.301-9.996s6.396-6.411 6.396-6.411 54.855-32.104 66.173-38.027c11.318-5.923 21.615.605 26.552 2l275.296 100.723s5.572-8.518 10.762-11.881c5.189-3.364 15.254-4.681 22.486-2.525l88.084 31.999c83.653-84.113 218.986-93.507 313.843-17.802 101.708 81.172 118.356 229.427 37.183 331.135-81.173 101.709-229.428 118.356-331.136 37.184zm288.92-200.099c-29.353-23.426-72.14-18.622-95.566 10.731-23.427 29.353-18.622 72.14 10.731 95.566 29.353 23.427 72.139 18.622 95.566-10.731 23.426-29.353 18.622-72.139-10.731-95.566z" class="cls-3"/><path d="M670 624.62c-66.716 0-126.949-27.736-169.816-72.297C484.866 557.627 427.921 577.27 414 581c-16.126 4.321-20.194.825-27-4-6.806-4.825-8-10-8-10l-103.04 34.632C271.076 587.863 257.943 578 242.5 578c-19.606 0-35.5 15.894-35.5 35.5 0 3.748.585 7.359 1.662 10.751l-29.501 9.915C176.631 625.409 168.571 619 159 619c-11.598 0-21 9.402-21 21 0 2.656.513 5.186 1.413 7.525L138 648s-26.022 9.194-36 12c-9.979 2.806-23.179 2.563-26 1 0 0-65.813-37.985-69-40-3.187-2.015-5.24-3.021-6-8-.76-4.979 1-9 1-9s22.849-59.311 28-71 17.272-13.011 22-15l278-93s-.958-10.134 1-16 9.003-13.174 16-16l88.807-29.935C448.721 245.141 548.637 153.38 670 153.38c130.129 0 235.62 105.491 235.62 235.62 0 130.129-105.491 235.62-235.62 235.62zM771 288c-37.555 0-68 30.445-68 68s30.445 68 68 68 68-30.445 68-68-30.445-68-68-68z" class="cls-1"/><path d="M690 644.62c-66.716 0-126.949-27.736-169.816-72.297C504.866 577.627 447.921 597.27 434 601c-16.126 4.321-20.194.825-27-4-6.806-4.825-8-10-8-10l-103.04 34.632C291.076 607.863 277.943 598 262.5 598c-19.606 0-35.5 15.894-35.5 35.5 0 3.748.585 7.359 1.662 10.751l-29.501 9.915C196.631 645.409 188.571 639 179 639c-11.598 0-21 9.402-21 21 0 2.656.513 5.186 1.413 7.525L158 668s-26.022 9.194-36 12c-9.979 2.806-23.179 2.563-26 1 0 0-65.813-37.985-69-40-3.187-2.015-5.24-3.021-6-8-.76-4.979 1-9 1-9s22.849-59.311 28-71 17.272-13.011 22-15l278-93s-.958-10.134 1-16 9.003-13.174 16-16l88.807-29.935C468.721 265.141 568.637 173.38 690 173.38c130.129 0 235.62 105.491 235.62 235.62 0 130.129-105.491 235.62-235.62 235.62zM791 308c-37.555 0-68 30.445-68 68s30.445 68 68 68 68-30.445 68-68-30.445-68-68-68z" class="cls-4"/></svg>