<svg xmlns="http://www.w3.org/2000/svg" preserveAspectRatio="xMidYMid" width="126" height="67" viewBox="0 0 126 67"><defs><style>.cls-1{fill:#e6b731}.cls-1,.cls-2,.cls-3{fill-rule:evenodd}.cls-2{fill:#e57526}.cls-3{fill:#32342d}</style></defs><path d="M90.335 64.629c-13.056 1.971-24.644 2.163-24.644 2.163s1.497-27.007.863-37.327c-.634-10.319-1.15-18.646-1.15-18.646s5.451-.554 12.941-2.353c7.49-1.798 41.984-7.093 41.984-7.093s3.817 29.594 4.19 36.639c.374 7.045.857 20.863.857 20.863s-21.985 3.782-35.041 5.754zm7.506-51.787c-.631-1.827-2.412-2.87-3.978-2.329-1.566.54-2.324 2.46-1.693 4.287.631 1.827 2.412 2.87 3.978 2.329 1.566-.541 2.324-2.46 1.693-4.287z" class="cls-1"/><path d="M65 45c-1.947 6.781-6 20-6 20s-22.016-3.602-35-6c-12.984-2.398-24-6-24-6s10.23-25.039 13-35c2.77-9.961 5-18 5-18s5.333 1.255 13 2c7.667.745 42 7 42 7s-6.053 29.219-8 36zM45 9c-1.657 0-3 1.567-3 3.5s1.343 3.5 3 3.5 3-1.567 3-3.5S46.657 9 45 9z" class="cls-2"/><path d="M22.797 24.809l.361-1.967 32.999 6.053-.361 1.967-32.999-6.053zm22.584 16.343l-32.999-6.054.36-1.967 33 6.054-.361 1.967zm7.528 5.448l-.361 1.967-32.999-6.054.361-1.967L52.909 46.6zM30.325 30.257l32.999 6.053-.361 1.967-32.999-6.053.361-1.967zM88.619 43.152l-.361-1.967 33-6.054.36 1.967-32.999 6.054zM77.843 30.895l32.999-6.053.361 1.967-32.999 6.053-.361-1.967zm26.193 3.329l-32.999 6.053-.361-1.967 32.999-6.053.361 1.967zm10.415 10.289l-32.999 6.054-.361-1.967 32.999-6.054.361 1.967z" class="cls-3"/></svg>